<svg width="512" height="512" viewBox="0 0 512 512" fill="none" xmlns="http://www.w3.org/2000/svg">
  <path d="M0 8C0 3.58172 3.58172 0 8 0H504C508.418 0 512 3.58172 512 8V504C512 508.418 508.418 512 504 512H8C3.58172 512 0 508.418 0 504V8Z" fill="white"/>
  <svg xmlns="http://www.w3.org/2000/svg" viewBox="0 0 57 57" shape-rendering="crispEdges" height="512" width="512" x="0" y="0"><path stroke="#000000" d="M4 4.5h7m2 0h1m1 0h1m11 0h1m3 0h4m1 0h1m1 0h2m1 0h1m2 0h1m1 0h7M4 5.5h1m5 0h1m2 0h1m2 0h2m2 0h3m1 0h5m2 0h1m3 0h10m1 0h1m5 0h1M4 6.5h1m1 0h3m1 0h1m1 0h2m1 0h4m3 0h2m1 0h4m1 0h1m1 0h2m3 0h2m2 0h1m1 0h2m1 0h1m1 0h3m1 0h1M4 7.5h1m1 0h3m1 0h1m1 0h1m1 0h3m5 0h1m2 0h2m2 0h6m2 0h5m1 0h1m2 0h1m1 0h3m1 0h1M4 8.5h1m1 0h3m1 0h1m3 0h2m2 0h1m1 0h2m2 0h8m2 0h2m3 0h1m1 0h1m4 0h1m1 0h3m1 0h1M4 9.5h1m5 0h1m2 0h1m2 0h2m2 0h1m3 0h3m3 0h1m2 0h2m1 0h1m5 0h1m3 0h1m5 0h1M4 10.5h7m1 0h1m1 0h1m1 0h1m1 0h1m1 0h1m1 0h1m1 0h1m1 0h1m1 0h1m1 0h1m1 0h1m1 0h1m1 0h1m1 0h1m1 0h1m1 0h1m1 0h1m1 0h7M13 11.5h2m1 0h1m3 0h2m3 0h2m3 0h2m4 0h2m1 0h4M7 12.5h2m1 0h2m1 0h1m1 0h1m2 0h5m1 0h9m2 0h2m1 0h1m1 0h1m2 0h1m5 0h2M4 13.5h2m5 0h2m1 0h2m1 0h4m1 0h1m1 0h1m1 0h1m2 0h3m4 0h1m1 0h12M7 14.5h1m1 0h2m1 0h2m2 0h2m2 0h1m1 0h1m2 0h1m4 0h1m1 0h1m2 0h1m2 0h3m3 0h2m1 0h1m1 0h1m2 0h1M6 15.5h1m1 0h1m6 0h3m3 0h1m1 0h1m1 0h1m1 0h1m1 0h4m3 0h2m1 0h1m4 0h3m1 0h3m1 0h1M5 16.5h1m1 0h2m1 0h1m1 0h1m2 0h1m1 0h3m7 0h1m2 0h1m2 0h2m1 0h2m2 0h1m2 0h1m4 0h2m1 0h1M4 17.5h2m2 0h1m2 0h3m3 0h1m2 0h3m2 0h1m1 0h3m3 0h1m1 0h1m1 0h1m4 0h2m1 0h2m2 0h1M4 18.5h2m2 0h3m3 0h1m1 0h3m3 0h2m2 0h6m3 0h1m1 0h1m1 0h1m1 0h2m5 0h1m1 0h3M5 19.5h2m1 0h1m2 0h2m1 0h1m1 0h3m2 0h3m1 0h2m2 0h1m1 0h1m2 0h1m2 0h1m3 0h1m1 0h1m1 0h2m2 0h2M4 20.5h1m1 0h3m1 0h5m2 0h1m6 0h1m2 0h1m2 0h3m1 0h1m2 0h2m1 0h1m2 0h1m2 0h7M5 21.5h2m5 0h3m1 0h1m3 0h1m3 0h3m1 0h1m1 0h1m2 0h2m1 0h2m1 0h4m1 0h1m1 0h2m1 0h3M4 22.5h1m1 0h1m1 0h1m1 0h2m2 0h2m1 0h1m1 0h2m1 0h1m1 0h3m2 0h1m2 0h3m2 0h2m2 0h5m4 0h3M8 23.5h1m2 0h2m2 0h1m1 0h1m1 0h1m3 0h1m8 0h3m1 0h1m1 0h1m3 0h2m5 0h1m2 0h1M5 24.5h2m1 0h1m1 0h2m2 0h2m3 0h4m1 0h1m3 0h1m1 0h4m2 0h5m2 0h1m3 0h1m3 0h2M4 25.5h1m3 0h2m4 0h2m2 0h1m2 0h1m2 0h2m2 0h1m2 0h2m1 0h1m1 0h3m1 0h5m1 0h1m1 0h2M5 26.5h1m2 0h9m1 0h1m3 0h2m2 0h10m1 0h2m1 0h2m2 0h5m1 0h1m1 0h1M5 27.5h1m1 0h2m3 0h1m2 0h3m1 0h2m2 0h1m2 0h1m3 0h1m4 0h1m2 0h2m1 0h1m2 0h1m3 0h5M4 28.5h1m3 0h1m1 0h1m1 0h1m2 0h6m1 0h2m2 0h1m1 0h1m1 0h1m4 0h3m2 0h1m1 0h1m1 0h1m1 0h1m1 0h3M5 29.5h4m3 0h1m3 0h2m5 0h2m1 0h1m3 0h2m2 0h1m1 0h2m1 0h1m2 0h3m3 0h2M5 30.5h9m1 0h2m1 0h1m2 0h2m1 0h8m2 0h2m1 0h1m1 0h1m1 0h8m1 0h3M7 31.5h1m1 0h1m3 0h2m1 0h1m1 0h1m1 0h1m1 0h2m1 0h1m3 0h1m1 0h2m8 0h1m1 0h1m4 0h3m1 0h1M4 32.5h8m1 0h1m2 0h2m1 0h5m1 0h1m1 0h1m1 0h2m1 0h5m2 0h3m1 0h1m1 0h3m2 0h1m1 0h1M4 33.5h1m1 0h3m4 0h3m2 0h2m2 0h1m2 0h1m2 0h1m1 0h6m1 0h4m3 0h1m1 0h2m1 0h1m1 0h1M4 34.5h1m2 0h5m1 0h1m1 0h1m3 0h1m2 0h3m1 0h1m4 0h2m4 0h1m1 0h3m4 0h1m1 0h2m2 0h1M6 35.5h2m3 0h3m1 0h1m2 0h1m1 0h1m3 0h2m1 0h1m1 0h1m1 0h1m2 0h5m1 0h1m2 0h3m1 0h3m1 0h2M4 36.5h1m1 0h2m2 0h2m3 0h1m2 0h2m1 0h1m1 0h2m2 0h1m2 0h1m2 0h1m2 0h1m2 0h1m3 0h4m1 0h2m1 0h2M4 37.5h1m2 0h1m6 0h2m1 0h1m1 0h1m2 0h3m1 0h1m1 0h1m5 0h1m2 0h2m2 0h2m1 0h7M6 38.5h1m3 0h2m1 0h2m1 0h3m3 0h3m1 0h3m1 0h2m2 0h2m2 0h1m2 0h1m4 0h3m3 0h1M4 39.5h6m2 0h5m2 0h2m1 0h1m1 0h1m4 0h1m3 0h1m1 0h5m2 0h2m5 0h2M4 40.5h1m2 0h1m2 0h1m1 0h1m1 0h1m4 0h1m1 0h1m1 0h1m3 0h1m2 0h1m1 0h1m2 0h2m1 0h1m1 0h5m1 0h2m1 0h1m2 0h1M6 41.5h1m1 0h2m3 0h1m2 0h1m3 0h1m2 0h3m1 0h4m1 0h1m1 0h4m1 0h2m1 0h2m1 0h5m1 0h1M5 42.5h1m3 0h4m1 0h1m1 0h1m1 0h3m4 0h1m3 0h1m1 0h2m3 0h2m2 0h8m1 0h1m1 0h2M5 43.5h3m5 0h5m3 0h5m4 0h1m1 0h1m5 0h1m3 0h4m1 0h6M4 44.5h3m3 0h1m1 0h1m1 0h1m1 0h4m2 0h1m1 0h1m1 0h5m2 0h1m1 0h2m3 0h12M12 45.5h1m1 0h3m1 0h2m1 0h1m1 0h2m1 0h1m3 0h1m5 0h1m1 0h3m2 0h2m3 0h1M4 46.5h7m1 0h1m2 0h1m3 0h4m1 0h1m1 0h1m1 0h1m1 0h2m3 0h2m1 0h3m1 0h1m1 0h1m1 0h1m1 0h3m1 0h1M4 47.5h1m5 0h1m2 0h1m1 0h2m1 0h1m1 0h1m1 0h1m2 0h2m3 0h1m2 0h1m3 0h3m1 0h1m1 0h2m3 0h2m1 0h1M4 48.5h1m1 0h3m1 0h1m1 0h1m2 0h1m4 0h1m3 0h7m1 0h1m1 0h1m4 0h3m2 0h5m3 0h1M4 49.5h1m1 0h3m1 0h1m1 0h1m1 0h1m4 0h1m1 0h1m1 0h5m2 0h1m3 0h1m1 0h8m1 0h2m3 0h1m1 0h1M4 50.5h1m1 0h3m1 0h1m5 0h1m2 0h1m1 0h1m4 0h1m1 0h1m2 0h1m3 0h1m2 0h1m2 0h1m4 0h1m1 0h2m2 0h1M4 51.5h1m5 0h1m2 0h2m2 0h1m2 0h1m2 0h1m1 0h1m2 0h2m1 0h4m1 0h4m1 0h2m1 0h9M4 52.5h7m4 0h2m1 0h1m2 0h2m5 0h1m1 0h1m2 0h1m2 0h1m1 0h1m1 0h3m2 0h1m1 0h3m2 0h1"/></svg>

  <rect x="211.08771929824562" y="211.08771929824562" width="89.82456140350877" height="89.82456140350877" fill="black" stroke="white" stroke-width="9.482456140350877"/>
  <svg x="211.08771929824562" y="211.08771929824562" width="89.82456140350877" height="89.82456140350877" viewBox="0 0 116 116" fill="none" xmlns="http://www.w3.org/2000/svg">
    <path d="M63.9114 35.4964L52.1135 35.4964L30.6671 76.3932L39.9023 81.2706L58.0329 46.7391L76.1169 81.2829L85.333 76.3847L63.9114 35.4964Z" fill="white"/>
  </svg>
</svg>
